:SAMPLES-PER-SECOND 30
:FULLY-SPECIFIED
:DEGREES
484
root  -6.58477 39.2347 10.9612 178.785 29.0065 176.843
RightUpLeg  -4.98776 -3.3839 -4.02443
RightLeg  25.3391 -13.645 -7.16307
RightFoot  -12.6203 0.0540493 12.5218
RightToes  -1.74624e-010 0 -3.6325e-017
Spine  4.2244 -1.05813 -6.40629
Spine1  24.9668 -2.60852 3.10381
HEad  -11.71 25.1158 -11.2901
LeftShoulder1  1.00297 -0.95925 -15.6741
LeftArm  18.9319 6.18687 -60.3227
LeftForeArm  63.9364 -79.0242 -73.6437
LeftHand  -2.19649 -3.24642 29.2179
RightShoulder  0.661082 -0.0261583 11.9876
RightArm  11.8341 -13.6301 59.6026
RightForeArm  147.132 66.1504 155.267
RightHand  -1.00674 4.21267 -12.4
LeftUpLeg  -6.11629 2.22628 2.0648
LeftLeg  19.1121 7.86662 3.34886
LeftFoot  -11.4025 0.0634821 -8.79845
LeftToes  3.7286e-011 -1.5702e-010 -9.70233e-012
485
root  -6.60709 39.2394 10.8685 178.831 29.574 176.8
RightUpLeg  -5.48901 -3.31148 -4.25459
RightLeg  26.0872 -12.9168 -7.01636
RightFoot  -12.165 0.0118104 13.1377
RightToes  -1.74624e-010 0 -3.6325e-017
Spine  3.99461 -0.822641 -6.7316
Spine1  25.1294 -2.40249 3.14767
HEad  -11.1913 24.9887 -11.0631
LeftShoulder1  0.989977 -0.950863 -15.4005
LeftArm  17.8275 4.82026 -59.3772
LeftForeArm  66.7554 -79.163 -76.4778
LeftHand  -2.23161 -3.27527 29.5681
RightShoulder  0.657884 -0.0217166 11.8571
RightArm  11.5787 -14.1525 60.6994
RightForeArm  148.158 65.8651 155.69
RightHand  -1.03786 4.40844 -12.5292
LeftUpLeg  -5.95196 3.08305 2.01728
LeftLeg  19.0071 7.63674 3.24526
LeftFoot  -11.4645 0.0590442 -8.84287
LeftToes  3.7286e-011 -1.5702e-010 -9.70233e-012
486
root  -6.60945 39.2421 10.7792 179.039 30.4058 176.698
RightUpLeg  -6.45461 -3.83098 -4.62049
RightLeg  27.1994 -11.4742 -6.56102
RightFoot  -11.6079 -0.0470327 13.4916
RightToes  -1.74624e-010 0 -3.6325e-017
Spine  3.77245 -0.549628 -7.11988
Spine1  24.9927 -2.11697 3.03744
HEad  -10.7218 25.1634 -10.9521
LeftShoulder1  0.922304 -0.698388 -15.0977
LeftArm  16.7688 4.1659 -58.2993
LeftForeArm  73.0063 -79.3799 -82.5274
LeftHand  -2.26453 -3.35405 29.726
RightShoulder  0.637893 -0.116008 11.7887
RightArm  11.5611 -14.6405 61.5784
RightForeArm  148.673 65.2829 156.356
RightHand  -1.04867 4.43373 -12.625
LeftUpLeg  -5.80519 4.22635 1.95109
LeftLeg  18.6302 7.4286 3.09981
LeftFoot  -11.6359 0.0467026 -8.89096
LeftToes  3.7286e-011 -1.5702e-010 -9.70233e-012
487
root  -6.63352 39.1982 10.7139 179.36 31.0779 176.497
RightUpLeg  -8.4849 -5.76597 -5.36299
RightLeg  29.8269 -8.98272 -5.75147
RightFoot  -10.6668 -0.152919 13.6816
RightToes  -1.74624e-010 0 -3.6325e-017
Spine  3.89835 -0.431032 -7.55136
Spine1  24.4991 -1.9929 2.86834
HEad  -10.9019 25.5009 -11.1634
LeftShoulder1  0.842687 -0.389303 -14.7655
LeftArm  15.7029 4.01906 -57.2943
LeftForeArm  79.3817 -79.4722 -88.8425
LeftHand  -2.30892 -3.42631 30.0431
RightShoulder  0.620164 -0.210836 11.7956
RightArm  11.8716 -14.7093 61.938
RightForeArm  149.111 64.763 156.925
RightHand  -1.00475 4.33343 -12.2285
LeftUpLeg  -6.20034 4.8027 1.70755
LeftLeg  18.8867 7.46306 3.13241
LeftFoot  -12.0264 0.0182943 -8.96769
LeftToes  3.7286e-011 -1.5702e-010 -9.70233e-012
488
root  -6.67626 39.0727 10.686 179.405 31.7845 176.003
RightUpLeg  -11.6392 -8.46064 -6.64603
RightLeg  34.4869 -5.2898 -4.11638
RightFoot  -8.69355 -0.417531 15.1851
RightToes  -1.74624e-010 0 -3.6325e-017
Spine  4.5727 -0.307573 -8.16097
Spine1  23.8441 -1.85049 2.52826
HEad  -11.7378 25.766 -11.5934
LeftShoulder1  0.810618 -0.311999 -14.3276
LeftArm  14.6222 4.08612 -56.4684
LeftForeArm  83.1762 -79.4653 -92.6512
LeftHand  -2.38145 -3.54211 30.5573
RightShoulder  0.61265 -0.239891 11.7268
RightArm  12.2831 -14.3968 61.9666
RightForeArm  149.577 64.6116 157.123
RightHand  -0.937799 4.28792 -11.4909
LeftUpLeg  -7.00767 5.15849 1.17874
LeftLeg  20.1374 7.62188 3.40546
LeftFoot  -12.7726 -0.0383092 -9.15796
LeftToes  3.7286e-011 -1.5702e-010 -9.70233e-012
489
root  -6.67236 38.8187 10.7022 178.761 32.8076 175.162
RightUpLeg  -15.2013 -10.4885 -8.28049
RightLeg  40.6347 -1.57854 -1.7273
RightFoot  -5.8869 -0.9365 18.5702
RightToes  -1.74624e-010 0 -3.6325e-017
Spine  5.62742 0.051045 -9.32407
Spine1  23.4705 -1.55143 2.10272
HEad  -12.6718 26.0204 -11.9347
LeftShoulder1  0.823547 -0.463059 -13.7967
LeftArm  13.6692 3.98092 -55.8296
LeftForeArm  81.8051 -79.4751 -91.2163
LeftHand  -2.46534 -3.73629 30.941
RightShoulder  0.617582 -0.193847 11.6
RightArm  12.577 -13.8309 61.9004
RightForeArm  149.128 64.958 156.733
RightHand  -0.919134 4.31986 -11.233
LeftUpLeg  -7.81223 6.19727 0.598735
LeftLeg  22.5419 7.27972 3.64743
LeftFoot  -14.1653 -0.153378 -9.6173
LeftToes  3.7286e-011 -1.5702e-010 -9.70233e-012
490
root  -6.57687 38.4773 10.7455 177.565 33.7973 174.342
RightUpLeg  -18.1176 -11.5015 -9.85961
RightLeg  46.5763 0.106056 -0.2398
RightFoot  -3.63818 -1.5004 21.7498
RightToes  -1.74624e-010 0 -3.6325e-017
Spine  6.60457 0.555488 -10.8328
Spine1  23.7759 -1.2703 1.91608
HEad  -13.1536 26.3282 -11.9644
LeftShoulder1  0.837528 -0.593798 -13.4427
LeftArm  13.2626 3.05214 -55.2723
LeftForeArm  71.6309 -79.3245 -81.7275
LeftHand  -2.49512 -3.76743 31.1936
RightShoulder  0.638685 -0.0933118 11.6727
RightArm  12.6471 -13.1898 61.7506
RightForeArm  147.559 65.7045 155.794
RightHand  -0.958852 4.30901 -11.7156
LeftUpLeg  -8.25941 7.76546 0.410472
LeftLeg  25.5508 6.22438 3.58336
LeftFoot  -15.9433 -0.318495 -10.2734
LeftToes  3.7286e-011 -1.5702e-010 -9.70233e-012
